<mxfile host="Electron" modified="2023-07-02T10:20:45.795Z" agent="Mozilla/5.0 (Windows NT 10.0; Win64; x64) AppleWebKit/537.36 (KHTML, like Gecko) draw.io/21.5.0 Chrome/112.0.5615.204 Electron/24.5.1 Safari/537.36" etag="lSXLh6DAGI9KkkHyY4Qb" version="21.5.0" type="device">
  <diagram id="LdKvfCDa8RjUUC_c0zoU" name="Page-1">
    <mxGraphModel dx="1098" dy="658" grid="1" gridSize="10" guides="1" tooltips="1" connect="1" arrows="1" fold="1" page="1" pageScale="1" pageWidth="827" pageHeight="1169" math="0" shadow="0">
      <root>
        <mxCell id="0" />
        <mxCell id="1" parent="0" />
        <mxCell id="hjSwI5PDpPuFmJWyF_WU-24" value="" style="shape=table;startSize=0;container=1;collapsible=0;childLayout=tableLayout;strokeWidth=2;strokeColor=default;fontSize=16;" parent="1" vertex="1">
          <mxGeometry x="40" y="40" width="780" height="80" as="geometry" />
        </mxCell>
        <mxCell id="hjSwI5PDpPuFmJWyF_WU-25" value="" style="shape=tableRow;horizontal=0;startSize=0;swimlaneHead=0;swimlaneBody=0;top=0;left=0;bottom=0;right=0;collapsible=0;dropTarget=0;fillColor=none;points=[[0,0.5],[1,0.5]];portConstraint=eastwest;strokeWidth=2;fontSize=16;" parent="hjSwI5PDpPuFmJWyF_WU-24" vertex="1">
          <mxGeometry width="780" height="40" as="geometry" />
        </mxCell>
        <mxCell id="hjSwI5PDpPuFmJWyF_WU-26" value="作品番号" style="shape=partialRectangle;html=1;whiteSpace=wrap;connectable=0;overflow=hidden;fillColor=#1ba1e2;top=0;left=0;bottom=0;right=0;pointerEvents=1;fontColor=#ffffff;strokeColor=#006EAF;strokeWidth=2;fontSize=16;" parent="hjSwI5PDpPuFmJWyF_WU-25" vertex="1">
          <mxGeometry width="160" height="40" as="geometry">
            <mxRectangle width="160" height="40" as="alternateBounds" />
          </mxGeometry>
        </mxCell>
        <mxCell id="hjSwI5PDpPuFmJWyF_WU-27" value="概要" style="shape=partialRectangle;html=1;whiteSpace=wrap;connectable=0;overflow=hidden;fillColor=#1ba1e2;top=0;left=0;bottom=0;right=0;pointerEvents=1;fontColor=#ffffff;strokeColor=#006EAF;strokeWidth=2;fontSize=16;" parent="hjSwI5PDpPuFmJWyF_WU-25" vertex="1">
          <mxGeometry x="160" width="400" height="40" as="geometry">
            <mxRectangle width="400" height="40" as="alternateBounds" />
          </mxGeometry>
        </mxCell>
        <mxCell id="hjSwI5PDpPuFmJWyF_WU-28" value="作品名" style="shape=partialRectangle;html=1;whiteSpace=wrap;connectable=0;overflow=hidden;fillColor=#1ba1e2;top=0;left=0;bottom=0;right=0;pointerEvents=1;fontColor=#ffffff;strokeColor=none;strokeWidth=2;fontSize=16;" parent="hjSwI5PDpPuFmJWyF_WU-25" vertex="1">
          <mxGeometry x="560" width="220" height="40" as="geometry">
            <mxRectangle width="220" height="40" as="alternateBounds" />
          </mxGeometry>
        </mxCell>
        <mxCell id="hjSwI5PDpPuFmJWyF_WU-29" value="" style="shape=tableRow;horizontal=0;startSize=0;swimlaneHead=0;swimlaneBody=0;top=0;left=0;bottom=0;right=0;collapsible=0;dropTarget=0;fillColor=none;points=[[0,0.5],[1,0.5]];portConstraint=eastwest;strokeWidth=2;fontSize=16;" parent="hjSwI5PDpPuFmJWyF_WU-24" vertex="1">
          <mxGeometry y="40" width="780" height="40" as="geometry" />
        </mxCell>
        <mxCell id="hjSwI5PDpPuFmJWyF_WU-30" value="1" style="shape=partialRectangle;html=1;whiteSpace=wrap;connectable=0;overflow=hidden;fillColor=none;top=0;left=0;bottom=0;right=0;pointerEvents=1;strokeWidth=2;fontSize=16;" parent="hjSwI5PDpPuFmJWyF_WU-29" vertex="1">
          <mxGeometry width="160" height="40" as="geometry">
            <mxRectangle width="160" height="40" as="alternateBounds" />
          </mxGeometry>
        </mxCell>
        <mxCell id="hjSwI5PDpPuFmJWyF_WU-31" value="店舗案内サイト" style="shape=partialRectangle;html=1;whiteSpace=wrap;connectable=0;overflow=hidden;fillColor=none;top=0;left=0;bottom=0;right=0;pointerEvents=1;strokeWidth=2;fontSize=16;" parent="hjSwI5PDpPuFmJWyF_WU-29" vertex="1">
          <mxGeometry x="160" width="400" height="40" as="geometry">
            <mxRectangle width="400" height="40" as="alternateBounds" />
          </mxGeometry>
        </mxCell>
        <mxCell id="hjSwI5PDpPuFmJWyF_WU-32" value="coffeeShopSample" style="shape=partialRectangle;html=1;whiteSpace=wrap;connectable=0;overflow=hidden;fillColor=none;top=0;left=0;bottom=0;right=0;pointerEvents=1;strokeWidth=2;fontSize=16;" parent="hjSwI5PDpPuFmJWyF_WU-29" vertex="1">
          <mxGeometry x="560" width="220" height="40" as="geometry">
            <mxRectangle width="220" height="40" as="alternateBounds" />
          </mxGeometry>
        </mxCell>
        <mxCell id="hjSwI5PDpPuFmJWyF_WU-33" value="" style="shape=table;startSize=0;container=1;collapsible=0;childLayout=tableLayout;strokeWidth=2;strokeColor=#000000;fillColor=#1ba1e2;fontColor=#ffffff;swimlaneLine=1;rounded=0;fontSize=16;" parent="1" vertex="1">
          <mxGeometry x="40" y="140" width="780" height="210" as="geometry" />
        </mxCell>
        <mxCell id="hjSwI5PDpPuFmJWyF_WU-34" value="" style="shape=tableRow;horizontal=0;startSize=0;swimlaneHead=0;swimlaneBody=0;top=0;left=0;bottom=0;right=0;collapsible=0;dropTarget=0;fillColor=none;points=[[0,0.5],[1,0.5]];portConstraint=eastwest;strokeWidth=2;fontSize=16;" parent="hjSwI5PDpPuFmJWyF_WU-33" vertex="1">
          <mxGeometry width="780" height="210" as="geometry" />
        </mxCell>
        <mxCell id="hjSwI5PDpPuFmJWyF_WU-35" value="機能" style="shape=partialRectangle;html=1;whiteSpace=wrap;connectable=0;overflow=hidden;fillColor=#1ba1e2;top=0;left=0;bottom=0;right=0;pointerEvents=1;fontColor=#ffffff;strokeColor=#000000;strokeWidth=2;fontSize=16;" parent="hjSwI5PDpPuFmJWyF_WU-34" vertex="1">
          <mxGeometry width="160" height="210" as="geometry">
            <mxRectangle width="160" height="210" as="alternateBounds" />
          </mxGeometry>
        </mxCell>
        <mxCell id="hjSwI5PDpPuFmJWyF_WU-36" value="&lt;div style=&quot;font-size: 16px;&quot;&gt;・landing(index)ページ x 1&lt;/div&gt;&lt;div style=&quot;font-size: 16px;&quot;&gt;&lt;span style=&quot;background-color: initial;&quot;&gt;&amp;nbsp; ・店舗のイメージと説明&lt;/span&gt;&lt;br&gt;&lt;/div&gt;&lt;div style=&quot;font-size: 16px;&quot;&gt;&amp;nbsp; ・タイムリーな情報の発信&lt;/div&gt;&lt;div style=&quot;font-size: 16px;&quot;&gt;&lt;span style=&quot;background-color: initial;&quot;&gt;・menuページ x 1&lt;/span&gt;&lt;br&gt;&lt;/div&gt;&lt;div style=&quot;font-size: 16px;&quot;&gt;&amp;nbsp; ・提供飲食物紹介&lt;br&gt;&lt;/div&gt;&lt;div style=&quot;font-size: 16px;&quot;&gt;&lt;div style=&quot;border-color: var(--border-color);&quot;&gt;・accessページ x 1:&lt;/div&gt;&lt;div&gt;&lt;span style=&quot;background-color: initial;&quot;&gt;&amp;nbsp; ・&lt;/span&gt;&lt;span style=&quot;background-color: initial;&quot;&gt;アクセスマップ&lt;/span&gt;&lt;/div&gt;&lt;/div&gt;&lt;div style=&quot;font-size: 16px;&quot;&gt;&lt;span style=&quot;background-color: initial;&quot;&gt;・contactページ x 1:&lt;/span&gt;&lt;br&gt;&lt;/div&gt;&lt;div style=&quot;font-size: 16px;&quot;&gt;&lt;div style=&quot;border-color: var(--border-color);&quot;&gt;&amp;nbsp; ・予約・問い合わせ受付機能&lt;/div&gt;&lt;div&gt;&lt;span style=&quot;background-color: initial;&quot;&gt;&amp;nbsp; ・店舗予約と問合せ用フォーム (バックエンド: Formspree,&amp;nbsp;reCAPTCHA)&lt;/span&gt;&lt;br&gt;&lt;/div&gt;&lt;/div&gt;" style="shape=partialRectangle;html=1;whiteSpace=wrap;connectable=0;overflow=hidden;fillColor=default;top=0;left=0;bottom=0;right=0;pointerEvents=1;align=left;verticalAlign=top;strokeWidth=2;fontSize=16;" parent="hjSwI5PDpPuFmJWyF_WU-34" vertex="1">
          <mxGeometry x="160" width="620" height="210" as="geometry">
            <mxRectangle width="620" height="210" as="alternateBounds" />
          </mxGeometry>
        </mxCell>
        <mxCell id="hjSwI5PDpPuFmJWyF_WU-44" value="" style="shape=table;startSize=0;container=1;collapsible=0;childLayout=tableLayout;strokeWidth=2;strokeColor=#000000;fillColor=#1ba1e2;fontColor=#ffffff;fontSize=16;" parent="1" vertex="1">
          <mxGeometry x="40" y="370" width="780" height="350" as="geometry" />
        </mxCell>
        <mxCell id="hjSwI5PDpPuFmJWyF_WU-48" value="" style="shape=tableRow;horizontal=0;startSize=0;swimlaneHead=0;swimlaneBody=0;top=0;left=0;bottom=0;right=0;collapsible=0;dropTarget=0;fillColor=none;points=[[0,0.5],[1,0.5]];portConstraint=eastwest;strokeWidth=2;fontSize=16;" parent="hjSwI5PDpPuFmJWyF_WU-44" vertex="1">
          <mxGeometry width="780" height="350" as="geometry" />
        </mxCell>
        <mxCell id="hjSwI5PDpPuFmJWyF_WU-49" value="技術ポイント" style="shape=partialRectangle;html=1;whiteSpace=wrap;connectable=0;overflow=hidden;fillColor=#1ba1e2;top=0;left=0;bottom=0;right=0;pointerEvents=1;fontColor=#ffffff;strokeColor=#000000;strokeWidth=2;fontSize=16;" parent="hjSwI5PDpPuFmJWyF_WU-48" vertex="1">
          <mxGeometry width="160" height="350" as="geometry">
            <mxRectangle width="160" height="350" as="alternateBounds" />
          </mxGeometry>
        </mxCell>
        <mxCell id="hjSwI5PDpPuFmJWyF_WU-50" value="&lt;div style=&quot;font-size: 16px;&quot;&gt;[言語]:&lt;/div&gt;&lt;div style=&quot;font-size: 16px;&quot;&gt;・HTML Living Standard&lt;/div&gt;&lt;div style=&quot;font-size: 16px;&quot;&gt;・CSS&lt;/div&gt;&lt;div style=&quot;font-size: 16px;&quot;&gt;&lt;br style=&quot;font-size: 16px;&quot;&gt;&lt;/div&gt;&lt;div style=&quot;font-size: 16px;&quot;&gt;[ソース管理ツール・サービス]:&lt;/div&gt;&lt;div style=&quot;font-size: 16px;&quot;&gt;・local:&lt;span style=&quot;background-color: initial;&quot;&gt;&amp;nbsp;Git&lt;/span&gt;&lt;/div&gt;&lt;div style=&quot;font-size: 16px;&quot;&gt;・remote:&lt;span style=&quot;background-color: initial;&quot;&gt;&amp;nbsp;GitHub&lt;/span&gt;&lt;/div&gt;&lt;div style=&quot;font-size: 16px;&quot;&gt;&lt;br style=&quot;font-size: 16px;&quot;&gt;&lt;/div&gt;&lt;div style=&quot;font-size: 16px;&quot;&gt;[開発環境]:&lt;/div&gt;&lt;div style=&quot;font-size: 16px;&quot;&gt;・Atom IDE&lt;/div&gt;&lt;div style=&quot;font-size: 16px;&quot;&gt;&lt;br style=&quot;font-size: 16px;&quot;&gt;&lt;/div&gt;&lt;div style=&quot;font-size: 16px;&quot;&gt;[公開手法]:&lt;/div&gt;&lt;div style=&quot;font-size: 16px;&quot;&gt;・Vercel for GitHub&lt;/div&gt;&lt;div style=&quot;font-size: 16px;&quot;&gt;　(live deployment)&lt;/div&gt;&lt;div style=&quot;font-size: 16px;&quot;&gt;&lt;br style=&quot;font-size: 16px;&quot;&gt;&lt;/div&gt;&lt;div style=&quot;font-size: 16px;&quot;&gt;[公開先]:&lt;/div&gt;&lt;div style=&quot;font-size: 16px;&quot;&gt;・Vercel cloud&lt;/div&gt;" style="shape=partialRectangle;html=1;whiteSpace=wrap;connectable=0;overflow=hidden;fillColor=default;top=0;left=0;bottom=0;right=0;pointerEvents=1;align=left;horizontal=1;verticalAlign=top;strokeWidth=2;strokeColor=#000000;fontSize=16;" parent="hjSwI5PDpPuFmJWyF_WU-48" vertex="1">
          <mxGeometry x="160" width="620" height="350" as="geometry">
            <mxRectangle width="620" height="350" as="alternateBounds" />
          </mxGeometry>
        </mxCell>
        <mxCell id="hjSwI5PDpPuFmJWyF_WU-54" value="" style="shape=table;startSize=0;container=1;collapsible=0;childLayout=tableLayout;strokeWidth=2;strokeColor=#000000;fillColor=#1ba1e2;fontColor=#ffffff;verticalAlign=top;horizontal=0;fontSize=16;" parent="1" vertex="1">
          <mxGeometry x="40" y="740" width="780" height="340" as="geometry" />
        </mxCell>
        <mxCell id="hjSwI5PDpPuFmJWyF_WU-61" style="shape=tableRow;horizontal=0;startSize=0;swimlaneHead=0;swimlaneBody=0;top=0;left=0;bottom=0;right=0;collapsible=0;dropTarget=0;fillColor=none;points=[[0,0.5],[1,0.5]];portConstraint=eastwest;strokeWidth=2;fontSize=16;" parent="hjSwI5PDpPuFmJWyF_WU-54" vertex="1">
          <mxGeometry width="780" height="340" as="geometry" />
        </mxCell>
        <mxCell id="hjSwI5PDpPuFmJWyF_WU-62" value="学び" style="shape=partialRectangle;html=1;whiteSpace=wrap;connectable=0;overflow=hidden;fillColor=#1ba1e2;top=0;left=0;bottom=0;right=0;pointerEvents=1;align=center;fontColor=#ffffff;strokeColor=#006EAF;strokeWidth=2;fontSize=16;" parent="hjSwI5PDpPuFmJWyF_WU-61" vertex="1">
          <mxGeometry width="160" height="340" as="geometry">
            <mxRectangle width="160" height="340" as="alternateBounds" />
          </mxGeometry>
        </mxCell>
        <mxCell id="hjSwI5PDpPuFmJWyF_WU-63" value="&lt;div style=&quot;font-size: 16px;&quot;&gt;・HTML/CSSの体系的理解&lt;/div&gt;&lt;div style=&quot;font-size: 16px;&quot;&gt;・外部サービス利用による実装効率化&lt;/div&gt;&lt;div style=&quot;font-size: 16px;&quot;&gt;・機能美と装飾美のバランスの作り込み方&lt;/div&gt;&lt;span style=&quot;background-color: initial;&quot;&gt;・usabilityの作り込み方&lt;/span&gt;&lt;br&gt;&lt;div style=&quot;font-size: 16px;&quot;&gt;・accessibilityの作り込み方&lt;/div&gt;&lt;div style=&quot;font-size: 16px;&quot;&gt;・maitainabityの作り込み方&lt;/div&gt;&lt;div style=&quot;font-size: 16px;&quot;&gt;&lt;br style=&quot;font-size: 16px;&quot;&gt;&lt;/div&gt;&lt;div style=&quot;font-size: 16px;&quot;&gt;・web siteの構築・公開方法:&lt;/div&gt;&lt;div style=&quot;font-size: 16px;&quot;&gt;&amp;nbsp; ・web siteの継続的インテグレーションとデリバリー(CI/CD)&lt;/div&gt;&lt;div style=&quot;font-size: 16px;&quot;&gt;&amp;nbsp; ・Developer toolsの使用方法&lt;/div&gt;&lt;div style=&quot;font-size: 16px;&quot;&gt;&lt;br style=&quot;font-size: 16px;&quot;&gt;&lt;/div&gt;&lt;div style=&quot;font-size: 16px;&quot;&gt;・CSSによるanimation機能:&lt;/div&gt;&lt;div style=&quot;font-size: 16px;&quot;&gt;&amp;nbsp; ・css-transition&lt;/div&gt;&lt;div style=&quot;font-size: 16px;&quot;&gt;&amp;nbsp; ・css3-transform&lt;/div&gt;&lt;div style=&quot;font-size: 16px;&quot;&gt;&lt;br style=&quot;font-size: 16px;&quot;&gt;&lt;/div&gt;&lt;div style=&quot;font-size: 16px;&quot;&gt;・web siteのセキュリティの作り込み方:&lt;/div&gt;&lt;div style=&quot;font-size: 16px;&quot;&gt;　e.g.CSP(content security policy)&lt;/div&gt;" style="shape=partialRectangle;html=1;whiteSpace=wrap;connectable=0;overflow=hidden;fillColor=default;top=0;left=0;bottom=0;right=0;pointerEvents=1;align=left;strokeWidth=2;verticalAlign=top;fontSize=16;" parent="hjSwI5PDpPuFmJWyF_WU-61" vertex="1">
          <mxGeometry x="160" width="620" height="340" as="geometry">
            <mxRectangle width="620" height="340" as="alternateBounds" />
          </mxGeometry>
        </mxCell>
      </root>
    </mxGraphModel>
  </diagram>
</mxfile>
